{
    "asset" : {
        "generator" : "Khronos glTF Blender I/O v1.2.75",
        "version" : "2.0"
    },
    "scene" : 0,
    "scenes" : [
        {
            "name" : "Scene",
            "nodes" : [
                0
            ]
        }
    ],
    "nodes" : [
        {
            "mesh" : 0,
            "name" : "Cylinder.001",
            "translation" : [
                -0.0012198929907754064,
                0.34972935914993286,
                -0.0001583099365234375
            ]
        }
    ],
    "materials" : [
        {
            "doubleSided" : true,
            "emissiveFactor" : [
                0,
                0,
                0
            ],
            "name" : "Material.005",
            "pbrMetallicRoughness" : {
                "baseColorTexture" : {
                    "index" : 0,
                    "texCoord" : 0
                },
                "metallicFactor" : 0,
                "roughnessFactor" : 0.5
            }
        }
    ],
    "meshes" : [
        {
            "name" : "Cylinder.001",
            "primitives" : [
                {
                    "attributes" : {
                        "POSITION" : 0,
                        "NORMAL" : 1,
                        "TEXCOORD_0" : 2
                    },
                    "indices" : 3,
                    "material" : 0
                }
            ]
        }
    ],
    "textures" : [
        {
            "source" : 0
        }
    ],
    "images" : [
        {
            "bufferView" : 4,
            "mimeType" : "image/png",
            "name" : "materialtexture"
        }
    ],
    "accessors" : [
        {
            "bufferView" : 0,
            "componentType" : 5126,
            "count" : 1108,
            "max" : [
                0.549177348613739,
                0.6222426891326904,
                0.46616554260253906
            ],
            "min" : [
                -0.5854970812797546,
                -0.3699719309806824,
                -0.5332660675048828
            ],
            "type" : "VEC3"
        },
        {
            "bufferView" : 1,
            "componentType" : 5126,
            "count" : 1108,
            "type" : "VEC3"
        },
        {
            "bufferView" : 2,
            "componentType" : 5126,
            "count" : 1108,
            "type" : "VEC2"
        },
        {
            "bufferView" : 3,
            "componentType" : 5123,
            "count" : 1350,
            "type" : "SCALAR"
        }
    ],
    "bufferViews" : [
        {
            "buffer" : 0,
            "byteLength" : 13296,
            "byteOffset" : 0
        },
        {
            "buffer" : 0,
            "byteLength" : 13296,
            "byteOffset" : 13296
        },
        {
            "buffer" : 0,
            "byteLength" : 8864,
            "byteOffset" : 26592
        },
        {
            "buffer" : 0,
            "byteLength" : 2700,
            "byteOffset" : 35456
        },
        {
            "buffer" : 0,
            "byteLength" : 1095,
            "byteOffset" : 38156
        }
    ],
    "buffers" : [
        {
            "byteLength" : 39252,
            "uri" : "data:application/octet-stream;base64,"
        }
    ]
}
