{
    "asset" : {
        "generator" : "Khronos glTF Blender I/O v1.2.75",
        "version" : "2.0"
    },
    "scene" : 0,
    "scenes" : [
        {
            "name" : "Scene",
            "nodes" : [
                0
            ]
        }
    ],
    "nodes" : [
        {
            "mesh" : 0,
            "name" : "Cylinder",
            "translation" : [
                0,
                0.17873358726501465,
                0
            ]
        }
    ],
    "materials" : [
        {
            "emissiveFactor" : [
                0,
                0,
                0
            ],
            "name" : "Material.001",
            "pbrMetallicRoughness" : {
                "baseColorTexture" : {
                    "index" : 0,
                    "texCoord" : 0
                },
                "metallicFactor" : 0,
                "roughnessFactor" : 0.5
            }
        }
    ],
    "meshes" : [
        {
            "name" : "Cylinder",
            "primitives" : [
                {
                    "attributes" : {
                        "POSITION" : 0,
                        "NORMAL" : 1,
                        "TEXCOORD_0" : 2
                    },
                    "indices" : 3,
                    "material" : 0
                }
            ]
        }
    ],
    "textures" : [
        {
            "source" : 0
        }
    ],
    "images" : [
        {
            "bufferView" : 4,
            "mimeType" : "image/png",
            "name" : "materialtexture"
        }
    ],
    "accessors" : [
        {
            "bufferView" : 0,
            "componentType" : 5126,
            "count" : 1418,
            "max" : [
                0.666948676109314,
                0.5740199685096741,
                0.7414500713348389
            ],
            "min" : [
                -0.5719746351242065,
                -0.18602725863456726,
                -0.4979580342769623
            ],
            "type" : "VEC3"
        },
        {
            "bufferView" : 1,
            "componentType" : 5126,
            "count" : 1418,
            "type" : "VEC3"
        },
        {
            "bufferView" : 2,
            "componentType" : 5126,
            "count" : 1418,
            "type" : "VEC2"
        },
        {
            "bufferView" : 3,
            "componentType" : 5123,
            "count" : 1962,
            "type" : "SCALAR"
        }
    ],
    "bufferViews" : [
        {
            "buffer" : 0,
            "byteLength" : 17016,
            "byteOffset" : 0
        },
        {
            "buffer" : 0,
            "byteLength" : 17016,
            "byteOffset" : 17016
        },
        {
            "buffer" : 0,
            "byteLength" : 11344,
            "byteOffset" : 34032
        },
        {
            "buffer" : 0,
            "byteLength" : 3924,
            "byteOffset" : 45376
        },
        {
            "buffer" : 0,
            "byteLength" : 1095,
            "byteOffset" : 49300
        }
    ],
    "buffers" : [
        {
            "byteLength" : 50396,
            "uri" : "data:application/octet-stream;base64,"
        }
    ]
}
