{
    "asset" : {
        "generator" : "Khronos glTF Blender I/O v1.2.75",
        "version" : "2.0"
    },
    "scene" : 0,
    "scenes" : [
        {
            "name" : "Scene",
            "nodes" : [
                0
            ]
        }
    ],
    "nodes" : [
        {
            "mesh" : 0,
            "name" : "Plane.001",
            "rotation" : [
                0,
                -0.9947881698608398,
                0,
                -0.10196343809366226
            ],
            "translation" : [
                -0.024699753150343895,
                0.3029610812664032,
                0.011705338954925537
            ]
        }
    ],
    "materials" : [
        {
            "doubleSided" : true,
            "emissiveFactor" : [
                0,
                0,
                0
            ],
            "name" : "Material.003",
            "pbrMetallicRoughness" : {
                "baseColorTexture" : {
                    "index" : 0,
                    "texCoord" : 0
                },
                "metallicFactor" : 0,
                "roughnessFactor" : 0.5
            }
        }
    ],
    "meshes" : [
        {
            "name" : "Plane.013",
            "primitives" : [
                {
                    "attributes" : {
                        "POSITION" : 0,
                        "NORMAL" : 1,
                        "TEXCOORD_0" : 2
                    },
                    "indices" : 3,
                    "material" : 0
                }
            ]
        }
    ],
    "textures" : [
        {
            "source" : 0
        }
    ],
    "images" : [
        {
            "bufferView" : 4,
            "mimeType" : "image/png",
            "name" : "materialtexture"
        }
    ],
    "accessors" : [
        {
            "bufferView" : 0,
            "componentType" : 5126,
            "count" : 13473,
            "max" : [
                0.3632734417915344,
                0.846978485584259,
                0.3844621479511261
            ],
            "min" : [
                -0.36472296714782715,
                -0.36292991042137146,
                -0.41950559616088867
            ],
            "type" : "VEC3"
        },
        {
            "bufferView" : 1,
            "componentType" : 5126,
            "count" : 13473,
            "type" : "VEC3"
        },
        {
            "bufferView" : 2,
            "componentType" : 5126,
            "count" : 13473,
            "type" : "VEC2"
        },
        {
            "bufferView" : 3,
            "componentType" : 5123,
            "count" : 18549,
            "type" : "SCALAR"
        }
    ],
    "bufferViews" : [
        {
            "buffer" : 0,
            "byteLength" : 161676,
            "byteOffset" : 0
        },
        {
            "buffer" : 0,
            "byteLength" : 161676,
            "byteOffset" : 161676
        },
        {
            "buffer" : 0,
            "byteLength" : 107784,
            "byteOffset" : 323352
        },
        {
            "buffer" : 0,
            "byteLength" : 37098,
            "byteOffset" : 431136
        },
        {
            "buffer" : 0,
            "byteLength" : 1095,
            "byteOffset" : 468236
        }
    ],
    "buffers" : [
        {
            "byteLength" : 469332,
            "uri" : "data:application/octet-stream;base64,"
        }
    ]
}
