{
    "asset" : {
        "generator" : "Khronos glTF Blender I/O v1.2.75",
        "version" : "2.0"
    },
    "scene" : 0,
    "scenes" : [
        {
            "name" : "Scene",
            "nodes" : [
                0
            ]
        }
    ],
    "nodes" : [
        {
            "mesh" : 0,
            "name" : "Plane.001",
            "rotation" : [
                0,
                -0.9003467559814453,
                0,
                0.43517324328422546
            ],
            "translation" : [
                0.03123188018798828,
                0.1621348261833191,
                -0.0023906510323286057
            ]
        }
    ],
    "materials" : [
        {
            "doubleSided" : true,
            "emissiveFactor" : [
                0,
                0,
                0
            ],
            "name" : "Material.003",
            "pbrMetallicRoughness" : {
                "baseColorTexture" : {
                    "index" : 0,
                    "texCoord" : 0
                },
                "metallicFactor" : 0,
                "roughnessFactor" : 0.5
            }
        }
    ],
    "meshes" : [
        {
            "name" : "Plane.008",
            "primitives" : [
                {
                    "attributes" : {
                        "POSITION" : 0,
                        "NORMAL" : 1,
                        "TEXCOORD_0" : 2
                    },
                    "indices" : 3,
                    "material" : 0
                }
            ]
        }
    ],
    "textures" : [
        {
            "source" : 0
        }
    ],
    "images" : [
        {
            "bufferView" : 4,
            "mimeType" : "image/png",
            "name" : "materialtexture"
        }
    ],
    "accessors" : [
        {
            "bufferView" : 0,
            "componentType" : 5126,
            "count" : 1255,
            "max" : [
                0.3373512327671051,
                0.14990274608135223,
                0.30389881134033203
            ],
            "min" : [
                -0.3856711685657501,
                -0.18777182698249817,
                -0.3377344608306885
            ],
            "type" : "VEC3"
        },
        {
            "bufferView" : 1,
            "componentType" : 5126,
            "count" : 1255,
            "type" : "VEC3"
        },
        {
            "bufferView" : 2,
            "componentType" : 5126,
            "count" : 1255,
            "type" : "VEC2"
        },
        {
            "bufferView" : 3,
            "componentType" : 5123,
            "count" : 1791,
            "type" : "SCALAR"
        }
    ],
    "bufferViews" : [
        {
            "buffer" : 0,
            "byteLength" : 15060,
            "byteOffset" : 0
        },
        {
            "buffer" : 0,
            "byteLength" : 15060,
            "byteOffset" : 15060
        },
        {
            "buffer" : 0,
            "byteLength" : 10040,
            "byteOffset" : 30120
        },
        {
            "buffer" : 0,
            "byteLength" : 3582,
            "byteOffset" : 40160
        },
        {
            "buffer" : 0,
            "byteLength" : 1095,
            "byteOffset" : 43744
        }
    ],
    "buffers" : [
        {
            "byteLength" : 44840,
            "uri" : "data:application/octet-stream;base64,"
        }
    ]
}
