{
    "asset" : {
        "generator" : "Khronos glTF Blender I/O v1.2.75",
        "version" : "2.0"
    },
    "scene" : 0,
    "scenes" : [
        {
            "name" : "Scene",
            "nodes" : [
                0
            ]
        }
    ],
    "nodes" : [
        {
            "mesh" : 0,
            "name" : "Cylinder.001"
        }
    ],
    "materials" : [
        {
            "doubleSided" : true,
            "emissiveFactor" : [
                0,
                0,
                0
            ],
            "name" : "Material.004",
            "pbrMetallicRoughness" : {
                "baseColorTexture" : {
                    "index" : 0,
                    "texCoord" : 0
                },
                "metallicFactor" : 0,
                "roughnessFactor" : 0.5
            }
        }
    ],
    "meshes" : [
        {
            "name" : "Cylinder.004",
            "primitives" : [
                {
                    "attributes" : {
                        "POSITION" : 0,
                        "NORMAL" : 1,
                        "TEXCOORD_0" : 2
                    },
                    "indices" : 3,
                    "material" : 0
                }
            ]
        }
    ],
    "textures" : [
        {
            "source" : 0
        }
    ],
    "images" : [
        {
            "bufferView" : 4,
            "mimeType" : "image/png",
            "name" : "materialtexture"
        }
    ],
    "accessors" : [
        {
            "bufferView" : 0,
            "componentType" : 5126,
            "count" : 1090,
            "max" : [
                0.6120592951774597,
                4.074487686157227,
                0.8876594305038452
            ],
            "min" : [
                -0.9785599708557129,
                -0.05156654119491577,
                -0.6942688226699829
            ],
            "type" : "VEC3"
        },
        {
            "bufferView" : 1,
            "componentType" : 5126,
            "count" : 1090,
            "type" : "VEC3"
        },
        {
            "bufferView" : 2,
            "componentType" : 5126,
            "count" : 1090,
            "type" : "VEC2"
        },
        {
            "bufferView" : 3,
            "componentType" : 5123,
            "count" : 1392,
            "type" : "SCALAR"
        }
    ],
    "bufferViews" : [
        {
            "buffer" : 0,
            "byteLength" : 13080,
            "byteOffset" : 0
        },
        {
            "buffer" : 0,
            "byteLength" : 13080,
            "byteOffset" : 13080
        },
        {
            "buffer" : 0,
            "byteLength" : 8720,
            "byteOffset" : 26160
        },
        {
            "buffer" : 0,
            "byteLength" : 2784,
            "byteOffset" : 34880
        },
        {
            "buffer" : 0,
            "byteLength" : 1095,
            "byteOffset" : 37664
        }
    ],
    "buffers" : [
        {
            "byteLength" : 38760,
            "uri" : "data:application/octet-stream;base64,"
        }
    ]
}
