{
    "asset" : {
        "generator" : "Khronos glTF Blender I/O v1.2.75",
        "version" : "2.0"
    },
    "scene" : 0,
    "scenes" : [
        {
            "name" : "Scene",
            "nodes" : [
                0
            ]
        }
    ],
    "nodes" : [
        {
            "mesh" : 0,
            "name" : "Cylinder"
        }
    ],
    "materials" : [
        {
            "doubleSided" : true,
            "emissiveFactor" : [
                0,
                0,
                0
            ],
            "name" : "Material.003",
            "pbrMetallicRoughness" : {
                "baseColorTexture" : {
                    "index" : 0,
                    "texCoord" : 0
                },
                "metallicFactor" : 0,
                "roughnessFactor" : 0.5
            }
        }
    ],
    "meshes" : [
        {
            "name" : "Cylinder.002",
            "primitives" : [
                {
                    "attributes" : {
                        "POSITION" : 0,
                        "NORMAL" : 1,
                        "TEXCOORD_0" : 2
                    },
                    "indices" : 3,
                    "material" : 0
                }
            ]
        }
    ],
    "textures" : [
        {
            "source" : 0
        }
    ],
    "images" : [
        {
            "bufferView" : 4,
            "mimeType" : "image/png",
            "name" : "materialtexture"
        }
    ],
    "accessors" : [
        {
            "bufferView" : 0,
            "componentType" : 5126,
            "count" : 754,
            "max" : [
                0.5890681743621826,
                3.1194019317626953,
                0.8603284955024719
            ],
            "min" : [
                -0.7505670785903931,
                0.09715227037668228,
                -0.32024112343788147
            ],
            "type" : "VEC3"
        },
        {
            "bufferView" : 1,
            "componentType" : 5126,
            "count" : 754,
            "type" : "VEC3"
        },
        {
            "bufferView" : 2,
            "componentType" : 5126,
            "count" : 754,
            "type" : "VEC2"
        },
        {
            "bufferView" : 3,
            "componentType" : 5123,
            "count" : 936,
            "type" : "SCALAR"
        }
    ],
    "bufferViews" : [
        {
            "buffer" : 0,
            "byteLength" : 9048,
            "byteOffset" : 0
        },
        {
            "buffer" : 0,
            "byteLength" : 9048,
            "byteOffset" : 9048
        },
        {
            "buffer" : 0,
            "byteLength" : 6032,
            "byteOffset" : 18096
        },
        {
            "buffer" : 0,
            "byteLength" : 1872,
            "byteOffset" : 24128
        },
        {
            "buffer" : 0,
            "byteLength" : 1095,
            "byteOffset" : 26000
        }
    ],
    "buffers" : [
        {
            "byteLength" : 27096,
            "uri" : "data:application/octet-stream;base64,"
        }
    ]
}
