{
    "asset" : {
        "generator" : "Khronos glTF Blender I/O v1.2.75",
        "version" : "2.0"
    },
    "scene" : 0,
    "scenes" : [
        {
            "name" : "Scene",
            "nodes" : [
                0
            ]
        }
    ],
    "nodes" : [
        {
            "mesh" : 0,
            "name" : "Cylinder"
        }
    ],
    "materials" : [
        {
            "doubleSided" : true,
            "emissiveFactor" : [
                0,
                0,
                0
            ],
            "name" : "Material.005",
            "pbrMetallicRoughness" : {
                "baseColorTexture" : {
                    "index" : 0,
                    "texCoord" : 0
                },
                "metallicFactor" : 0,
                "roughnessFactor" : 0.5
            }
        }
    ],
    "meshes" : [
        {
            "name" : "Cylinder",
            "primitives" : [
                {
                    "attributes" : {
                        "POSITION" : 0,
                        "NORMAL" : 1,
                        "TEXCOORD_0" : 2
                    },
                    "indices" : 3,
                    "material" : 0
                }
            ]
        }
    ],
    "textures" : [
        {
            "source" : 0
        }
    ],
    "images" : [
        {
            "bufferView" : 4,
            "mimeType" : "image/png",
            "name" : "materialtexture"
        }
    ],
    "accessors" : [
        {
            "bufferView" : 0,
            "componentType" : 5126,
            "count" : 1138,
            "max" : [
                0.5315771698951721,
                3.3892464637756348,
                0.9313451647758484
            ],
            "min" : [
                -0.6708880066871643,
                -0.13382814824581146,
                -0.25966858863830566
            ],
            "type" : "VEC3"
        },
        {
            "bufferView" : 1,
            "componentType" : 5126,
            "count" : 1138,
            "type" : "VEC3"
        },
        {
            "bufferView" : 2,
            "componentType" : 5126,
            "count" : 1138,
            "type" : "VEC2"
        },
        {
            "bufferView" : 3,
            "componentType" : 5123,
            "count" : 1344,
            "type" : "SCALAR"
        }
    ],
    "bufferViews" : [
        {
            "buffer" : 0,
            "byteLength" : 13656,
            "byteOffset" : 0
        },
        {
            "buffer" : 0,
            "byteLength" : 13656,
            "byteOffset" : 13656
        },
        {
            "buffer" : 0,
            "byteLength" : 9104,
            "byteOffset" : 27312
        },
        {
            "buffer" : 0,
            "byteLength" : 2688,
            "byteOffset" : 36416
        },
        {
            "buffer" : 0,
            "byteLength" : 1095,
            "byteOffset" : 39104
        }
    ],
    "buffers" : [
        {
            "byteLength" : 40200,
            "uri" : "data:application/octet-stream;base64,"
        }
    ]
}
