{
  "asset": {
    "version": "2.0",
    "generator": "THREE.GLTFExporter"
  },
  "scenes": [
    {
      "name": "Scene",
      "nodes": [7]
    }
  ],
  "scene": 0,
  "nodes": [
    {
      "matrix": [
        1, 0, 0, 0, 0, 1, 0, 0, 0, 0, 1, 0, -0.000858393031267986, 0,
        0.005675859416018275, 1
      ],
      "name": "Cylinder",
      "mesh": 0
    },
    {
      "matrix": [
        0.2, 0, 0, 0, 0, 0.2, 0, 0, 0, 0, 0.2, 0, 1.1717222570153423,
        0.3619592561033203, -0.4613968401889981, 1
      ],
      "name": "Sphere",
      "mesh": 1
    },
    {
      "matrix": [
        0.2, 0, 0, 0, 0, 0.2, 0, 0, 0, 0, 0.2, 0, 0.9290767750171074,
        0.4062050137662636, 0.5717184743730994, 1
      ],
      "name": "Sphere",
      "mesh": 2
    },
    {
      "matrix": [
        0.2192684809869667, -0.01590221973119926, -1.3218428244890887, 0,
        -0.5123729736278764, 0.3375549701803899, -0.08905379274485617, 0,
        0.5495462007070003, 0.8554878347179905, 0.08086740961615112, 0,
        2.032262309117681, -0.22671289120527646, 0.194, 1
      ],
      "name": "Ring",
      "mesh": 3
    },
    {
      "matrix": [
        -0.40724206420397513, -0.42856533540883957, -0.8065269086824036, 0,
        -0.9037653363205427, 0.3164959661463406, 0.288164050982267, 0,
        0.13176539002447352, 0.8462635858283182, -0.5162129650567633, 0,
        0.7009502992649912, 0.16154348069478444, -1.373212237273608, 1
      ],
      "name": "Circle",
      "mesh": 4
    },
    {
      "matrix": [
        -0.7427847993308532, -0.41783059896042407, 0.5231523033069793, 0,
        -0.6687421816373001, 0.4251006278804183, -0.6099781558995846, 0,
        0.03247516561941452, -0.8029365147681649, -0.5951792308791901, 0,
        0.24117872441908636, 0.07687181512420554, 1.6668856284463371, 1
      ],
      "name": "Circle",
      "mesh": 4
    },
    {
      "matrix": [
        1, 0, 0, 0, 0, 1, 0, 0, 0, 0, 1, 0, -0.01682931809590359,
        0.5125491023735166, 0.033551992771601064, 1
      ],
      "name": "Sphere",
      "mesh": 5
    },
    {
      "matrix": [
        0.1495353434437092, 0, 0.9887563810470058, 0, 0, 0.6215837087877153, 0,
        0, -0.9887563810470058, 0, 0.1495353434437092, 0, 0.05054908251637613,
        0.2595707520736861, 11.62610460872909, 1
      ],
      "name": "Group",
      "children": [0, 1, 2, 3, 4, 5, 6]
    }
  ],
  "bufferViews": [
    {
      "buffer": 0,
      "byteOffset": 0,
      "byteLength": 3504,
      "target": 34962,
      "byteStride": 12
    },
    {
      "buffer": 0,
      "byteOffset": 3504,
      "byteLength": 3504,
      "target": 34962,
      "byteStride": 12
    },
    {
      "buffer": 0,
      "byteOffset": 7008,
      "byteLength": 2336,
      "target": 34962,
      "byteStride": 8
    },
    {
      "buffer": 0,
      "byteOffset": 9344,
      "byteLength": 1152,
      "target": 34963
    },
    {
      "buffer": 0,
      "byteOffset": 10496,
      "byteLength": 6732,
      "target": 34962,
      "byteStride": 12
    },
    {
      "buffer": 0,
      "byteOffset": 17228,
      "byteLength": 6732,
      "target": 34962,
      "byteStride": 12
    },
    {
      "buffer": 0,
      "byteOffset": 23960,
      "byteLength": 4488,
      "target": 34962,
      "byteStride": 8
    },
    {
      "buffer": 0,
      "byteOffset": 28448,
      "byteLength": 5760,
      "target": 34963
    },
    {
      "buffer": 0,
      "byteOffset": 34208,
      "byteLength": 6732,
      "target": 34962,
      "byteStride": 12
    },
    {
      "buffer": 0,
      "byteOffset": 40940,
      "byteLength": 6732,
      "target": 34962,
      "byteStride": 12
    },
    {
      "buffer": 0,
      "byteOffset": 47672,
      "byteLength": 4488,
      "target": 34962,
      "byteStride": 8
    },
    {
      "buffer": 0,
      "byteOffset": 52160,
      "byteLength": 5760,
      "target": 34963
    },
    {
      "buffer": 0,
      "byteOffset": 57920,
      "byteLength": 264,
      "target": 34962,
      "byteStride": 12
    },
    {
      "buffer": 0,
      "byteOffset": 58184,
      "byteLength": 264,
      "target": 34962,
      "byteStride": 12
    },
    {
      "buffer": 0,
      "byteOffset": 58448,
      "byteLength": 176,
      "target": 34962,
      "byteStride": 8
    },
    {
      "buffer": 0,
      "byteOffset": 58624,
      "byteLength": 120,
      "target": 34963
    },
    {
      "buffer": 0,
      "byteOffset": 58744,
      "byteLength": 84,
      "target": 34962,
      "byteStride": 12
    },
    {
      "buffer": 0,
      "byteOffset": 58828,
      "byteLength": 84,
      "target": 34962,
      "byteStride": 12
    },
    {
      "buffer": 0,
      "byteOffset": 58912,
      "byteLength": 56,
      "target": 34962,
      "byteStride": 8
    },
    {
      "buffer": 0,
      "byteOffset": 58968,
      "byteLength": 32,
      "target": 34963
    },
    {
      "buffer": 0,
      "byteOffset": 59000,
      "byteLength": 6732,
      "target": 34962,
      "byteStride": 12
    },
    {
      "buffer": 0,
      "byteOffset": 65732,
      "byteLength": 6732,
      "target": 34962,
      "byteStride": 12
    },
    {
      "buffer": 0,
      "byteOffset": 72464,
      "byteLength": 4488,
      "target": 34962,
      "byteStride": 8
    },
    {
      "buffer": 0,
      "byteOffset": 76952,
      "byteLength": 5760,
      "target": 34963
    }
  ],
  "buffers": [
    {
      "byteLength": 82712,
      "uri": "data:application/octet-stream;base64,"
    }
  ],
  "accessors": [
    {
      "bufferView": 0,
      "componentType": 5126,
      "count": 292,
      "max": [2.299999952316284, 0.5, 2.299999952316284],
      "min": [-2.299999952316284, -0.5, -2.299999952316284],
      "type": "VEC3"
    },
    {
      "bufferView": 1,
      "componentType": 5126,
      "count": 292,
      "max": [0.6097107529640198, 1, 0.6097107529640198],
      "min": [-0.6097107529640198, -1, -0.6097107529640198],
      "type": "VEC3"
    },
    {
      "bufferView": 2,
      "componentType": 5126,
      "count": 292,
      "max": [1, 1],
      "min": [0, 0],
      "type": "VEC2"
    },
    {
      "bufferView": 3,
      "componentType": 5123,
      "count": 576,
      "max": [291],
      "min": [0],
      "type": "SCALAR"
    },
    {
      "bufferView": 4,
      "componentType": 5126,
      "count": 561,
      "max": [1, 1, 1],
      "min": [-1, -1, -1],
      "type": "VEC3"
    },
    {
      "bufferView": 5,
      "componentType": 5126,
      "count": 561,
      "max": [1, 1, 1],
      "min": [-1, -1, -1],
      "type": "VEC3"
    },
    {
      "bufferView": 6,
      "componentType": 5126,
      "count": 561,
      "max": [1.015625, 1],
      "min": [-0.015625, 0],
      "type": "VEC2"
    },
    {
      "bufferView": 7,
      "componentType": 5123,
      "count": 2880,
      "max": [560],
      "min": [0],
      "type": "SCALAR"
    },
    {
      "bufferView": 8,
      "componentType": 5126,
      "count": 561,
      "max": [1, 1, 1],
      "min": [-1, -1, -1],
      "type": "VEC3"
    },
    {
      "bufferView": 9,
      "componentType": 5126,
      "count": 561,
      "max": [1, 1, 1],
      "min": [-1, -1, -1],
      "type": "VEC3"
    },
    {
      "bufferView": 10,
      "componentType": 5126,
      "count": 561,
      "max": [1.015625, 1],
      "min": [-0.015625, 0],
      "type": "VEC2"
    },
    {
      "bufferView": 11,
      "componentType": 5123,
      "count": 2880,
      "max": [560],
      "min": [0],
      "type": "SCALAR"
    },
    {
      "bufferView": 12,
      "componentType": 5126,
      "count": 22,
      "max": [0.996492862701416, 0.996492862701416, 0],
      "min": [-0.996492862701416, -0.08367784321308136, 0],
      "type": "VEC3"
    },
    {
      "bufferView": 13,
      "componentType": 5126,
      "count": 22,
      "max": [0, 0, 1],
      "min": [0, 0, 1],
      "type": "VEC3"
    },
    {
      "bufferView": 14,
      "componentType": 5126,
      "count": 22,
      "max": [0.998246431350708, 0.998246431350708],
      "min": [0.0017535703955218196, 0.4581610858440399],
      "type": "VEC2"
    },
    {
      "bufferView": 15,
      "componentType": 5123,
      "count": 60,
      "max": [21],
      "min": [0],
      "type": "SCALAR"
    },
    {
      "bufferView": 16,
      "componentType": 5126,
      "count": 7,
      "max": [1, 1, 0],
      "min": [0, 0, 0],
      "type": "VEC3"
    },
    {
      "bufferView": 17,
      "componentType": 5126,
      "count": 7,
      "max": [0, 0, 1],
      "min": [0, 0, 1],
      "type": "VEC3"
    },
    {
      "bufferView": 18,
      "componentType": 5126,
      "count": 7,
      "max": [1, 1],
      "min": [0.5, 0.5],
      "type": "VEC2"
    },
    {
      "bufferView": 19,
      "componentType": 5123,
      "count": 15,
      "max": [6],
      "min": [0],
      "type": "SCALAR"
    },
    {
      "bufferView": 20,
      "componentType": 5126,
      "count": 561,
      "max": [0.9992960095405579, 1, 0.9992960095405579],
      "min": [-0.9992960095405579, -1, -0.9992960095405579],
      "type": "VEC3"
    },
    {
      "bufferView": 21,
      "componentType": 5126,
      "count": 561,
      "max": [0.9992960095405579, 1, 0.9992960095405579],
      "min": [-0.9992960095405579, -1, -0.9992960095405579],
      "type": "VEC3"
    },
    {
      "bufferView": 22,
      "componentType": 5126,
      "count": 561,
      "max": [1.015625, 1],
      "min": [-0.015625, 0],
      "type": "VEC2"
    },
    {
      "bufferView": 23,
      "componentType": 5123,
      "count": 2880,
      "max": [560],
      "min": [0],
      "type": "SCALAR"
    }
  ],
  "materials": [
    {
      "pbrMetallicRoughness": {
        "baseColorFactor": [
          0.4470588235294118, 0.19215686274509805, 0.19215686274509805, 1
        ],
        "metallicFactor": 0.5,
        "roughnessFactor": 0.5
      },
      "emissiveFactor": [
        0.4470588235294118, 0.19215686274509805, 0.19215686274509805
      ]
    },
    {
      "pbrMetallicRoughness": {
        "baseColorFactor": [0, 0, 0, 1],
        "metallicFactor": 0,
        "roughnessFactor": 1
      }
    },
    {
      "pbrMetallicRoughness": {
        "baseColorFactor": [0, 0, 0, 1],
        "metallicFactor": 0,
        "roughnessFactor": 1
      }
    },
    {
      "pbrMetallicRoughness": {
        "baseColorFactor": [
          0.32941176470588235, 0.12549019607843137, 0.09019607843137255, 1
        ],
        "metallicFactor": 0,
        "roughnessFactor": 0.9
      },
      "doubleSided": true,
      "extensions": {
        "KHR_materials_unlit": {}
      }
    },
    {
      "pbrMetallicRoughness": {
        "baseColorFactor": [
          0.32941176470588235, 0.08627450980392157, 0.09019607843137255, 1
        ],
        "metallicFactor": 0,
        "roughnessFactor": 0.9
      },
      "doubleSided": true,
      "extensions": {
        "KHR_materials_unlit": {}
      }
    },
    {
      "pbrMetallicRoughness": {
        "baseColorFactor": [
          0.4470588235294118, 0.19215686274509805, 0.19215686274509805, 1
        ],
        "metallicFactor": 0,
        "roughnessFactor": 1
      },
      "emissiveFactor": [
        0.4470588235294118, 0.19215686274509805, 0.19215686274509805
      ]
    }
  ],
  "meshes": [
    {
      "primitives": [
        {
          "mode": 4,
          "attributes": {
            "POSITION": 0,
            "NORMAL": 1,
            "TEXCOORD_0": 2
          },
          "indices": 3,
          "material": 0
        }
      ]
    },
    {
      "primitives": [
        {
          "mode": 4,
          "attributes": {
            "POSITION": 4,
            "NORMAL": 5,
            "TEXCOORD_0": 6
          },
          "indices": 7,
          "material": 1
        }
      ]
    },
    {
      "primitives": [
        {
          "mode": 4,
          "attributes": {
            "POSITION": 8,
            "NORMAL": 9,
            "TEXCOORD_0": 10
          },
          "indices": 11,
          "material": 2
        }
      ]
    },
    {
      "primitives": [
        {
          "mode": 4,
          "attributes": {
            "POSITION": 12,
            "NORMAL": 13,
            "TEXCOORD_0": 14
          },
          "indices": 15,
          "material": 3
        }
      ]
    },
    {
      "primitives": [
        {
          "mode": 4,
          "attributes": {
            "POSITION": 16,
            "NORMAL": 17,
            "TEXCOORD_0": 18
          },
          "indices": 19,
          "material": 4
        }
      ]
    },
    {
      "primitives": [
        {
          "mode": 4,
          "attributes": {
            "POSITION": 20,
            "NORMAL": 21,
            "TEXCOORD_0": 22
          },
          "indices": 23,
          "material": 5
        }
      ]
    }
  ],
  "extensionsUsed": ["KHR_materials_unlit"]
}
