{
  "asset": {
    "version": "2.0",
    "generator": "THREE.GLTFExporter"
  },
  "scenes": [
    {
      "name": "Scene",
      "nodes": [
        9
      ]
    }
  ],
  "scene": 0,
  "nodes": [
    {
      "matrix": [
        0.06,
        0,
        0,
        0,
        0,
        0.05,
        0,
        0,
        0,
        0,
        0.06,
        0,
        0.55,
        0,
        0.3,
        1
      ],
      "name": "Sphere",
      "mesh": 0
    },
    {
      "matrix": [
        -1.1102230246251565e-16,
        0,
        -0.5000000000000001,
        0,
        -0.21650635094610973,
        0.12499999999999994,
        0,
        0,
        0.25,
        0.43301270189221946,
        -1.1102230246251565e-16,
        0,
        0.967,
        -0.21536320531262254,
        0,
        1
      ],
      "name": "Ring",
      "mesh": 1
    },
    {
      "matrix": [
        0.06,
        0,
        0,
        0,
        0,
        0.05,
        0,
        0,
        0,
        0,
        0.06,
        0,
        0.55,
        0,
        -0.3,
        1
      ],
      "name": "Sphere",
      "mesh": 0
    },
    {
      "matrix": [
        0.6,
        0,
        0,
        0,
        0,
        0.25,
        0,
        0,
        0,
        0,
        0.5,
        0,
        0,
        0.023883524515153298,
        0,
        1
      ],
      "name": "Sphere",
      "mesh": 2
    },
    {
      "matrix": [
        0.9998669315143227,
        0.016313162297132634,
        0,
        0,
        -0.00848284439450897,
        0.5199308043874479,
        0,
        0,
        0,
        0,
        1,
        0,
        0,
        -0.12,
        0,
        1
      ],
      "name": "Cylinder",
      "mesh": 3
    },
    {
      "matrix": [
        -0.3939231012048833,
        0.06945927106677212,
        0,
        0,
        -0.03472963553338606,
        -0.19696155060244164,
        0,
        0,
        0,
        0,
        0.2,
        0,
        0.34600317403424824,
        0,
        0,
        1
      ],
      "name": "Sphere",
      "mesh": 4
    },
    {
      "matrix": [
        0.13327249509079517,
        -0.19120836207052505,
        0.3250812272749397,
        0,
        -0.32986100052121525,
        0.10805268660806244,
        0.19878716571228314,
        0,
        -0.18283917082347767,
        -0.33431120111519874,
        -0.12167932618771485,
        0,
        0.2,
        -0.1,
        0.64,
        1
      ],
      "name": "Circle",
      "mesh": 5
    },
    {
      "matrix": [
        0.1482517530222335,
        -0.14369891690792655,
        -0.3425960288814269,
        0,
        -0.3413822270374181,
        0.09282299251073707,
        -0.1866602987362989,
        0,
        0.14655917845296276,
        0.3615722795525681,
        -0.08823771229101603,
        0,
        0.2,
        -0.1,
        -0.64,
        1
      ],
      "name": "Circle",
      "mesh": 5
    },
    {
      "matrix": [
        -4.329869796038111e-16,
        -6.927791673660977e-16,
        0.3900000000000001,
        0,
        -0.8822258448480716,
        -0.470826463447104,
        -1.609823385706477e-15,
        0,
        0.08945702805494968,
        -0.1676229105211336,
        -2.531308496145357e-16,
        0,
        -0.82,
        -0.28,
        0,
        1
      ],
      "name": "Cylinder",
      "mesh": 6
    },
    {
      "matrix": [
        0,
        -0.17364817766693036,
        0.9848077530122081,
        0,
        0,
        0.984807753012208,
        0.17364817766693036,
        0,
        -1,
        0,
        0,
        0,
        0,
        0,
        0,
        1
      ],
      "name": "Group",
      "children": [
        0,
        1,
        2,
        3,
        4,
        5,
        6,
        7,
        8
      ]
    }
  ],
  "bufferViews": [
    {
      "buffer": 0,
      "byteOffset": 0,
      "byteLength": 6732,
      "target": 34962,
      "byteStride": 12
    },
    {
      "buffer": 0,
      "byteOffset": 6732,
      "byteLength": 6732,
      "target": 34962,
      "byteStride": 12
    },
    {
      "buffer": 0,
      "byteOffset": 13464,
      "byteLength": 4488,
      "target": 34962,
      "byteStride": 8
    },
    {
      "buffer": 0,
      "byteOffset": 17952,
      "byteLength": 5760,
      "target": 34963
    },
    {
      "buffer": 0,
      "byteOffset": 23712,
      "byteLength": 216,
      "target": 34962,
      "byteStride": 12
    },
    {
      "buffer": 0,
      "byteOffset": 23928,
      "byteLength": 216,
      "target": 34962,
      "byteStride": 12
    },
    {
      "buffer": 0,
      "byteOffset": 24144,
      "byteLength": 144,
      "target": 34962,
      "byteStride": 8
    },
    {
      "buffer": 0,
      "byteOffset": 24288,
      "byteLength": 96,
      "target": 34963
    },
    {
      "buffer": 0,
      "byteOffset": 24384,
      "byteLength": 6732,
      "target": 34962,
      "byteStride": 12
    },
    {
      "buffer": 0,
      "byteOffset": 31116,
      "byteLength": 6732,
      "target": 34962,
      "byteStride": 12
    },
    {
      "buffer": 0,
      "byteOffset": 37848,
      "byteLength": 4488,
      "target": 34962,
      "byteStride": 8
    },
    {
      "buffer": 0,
      "byteOffset": 42336,
      "byteLength": 5760,
      "target": 34963
    },
    {
      "buffer": 0,
      "byteOffset": 48096,
      "byteLength": 624,
      "target": 34962,
      "byteStride": 12
    },
    {
      "buffer": 0,
      "byteOffset": 48720,
      "byteLength": 624,
      "target": 34962,
      "byteStride": 12
    },
    {
      "buffer": 0,
      "byteOffset": 49344,
      "byteLength": 416,
      "target": 34962,
      "byteStride": 8
    },
    {
      "buffer": 0,
      "byteOffset": 49760,
      "byteLength": 192,
      "target": 34963
    },
    {
      "buffer": 0,
      "byteOffset": 49952,
      "byteLength": 6732,
      "target": 34962,
      "byteStride": 12
    },
    {
      "buffer": 0,
      "byteOffset": 56684,
      "byteLength": 6732,
      "target": 34962,
      "byteStride": 12
    },
    {
      "buffer": 0,
      "byteOffset": 63416,
      "byteLength": 4488,
      "target": 34962,
      "byteStride": 8
    },
    {
      "buffer": 0,
      "byteOffset": 67904,
      "byteLength": 5760,
      "target": 34963
    },
    {
      "buffer": 0,
      "byteOffset": 73664,
      "byteLength": 120,
      "target": 34962,
      "byteStride": 12
    },
    {
      "buffer": 0,
      "byteOffset": 73784,
      "byteLength": 120,
      "target": 34962,
      "byteStride": 12
    },
    {
      "buffer": 0,
      "byteOffset": 73904,
      "byteLength": 80,
      "target": 34962,
      "byteStride": 8
    },
    {
      "buffer": 0,
      "byteOffset": 73984,
      "byteLength": 48,
      "target": 34963
    },
    {
      "buffer": 0,
      "byteOffset": 74032,
      "byteLength": 624,
      "target": 34962,
      "byteStride": 12
    },
    {
      "buffer": 0,
      "byteOffset": 74656,
      "byteLength": 624,
      "target": 34962,
      "byteStride": 12
    },
    {
      "buffer": 0,
      "byteOffset": 75280,
      "byteLength": 416,
      "target": 34962,
      "byteStride": 8
    },
    {
      "buffer": 0,
      "byteOffset": 75696,
      "byteLength": 192,
      "target": 34963
    }
  ],
  "buffers": [
    {
      "byteLength": 75888,
      "uri": "data:application/octet-stream;base64,"
    }
  ],
  "accessors": [
    {
      "bufferView": 0,
      "componentType": 5126,
      "count": 561,
      "max": [
        1,
        1,
        1
      ],
      "min": [
        -1,
        -1,
        -1
      ],
      "type": "VEC3"
    },
    {
      "bufferView": 1,
      "componentType": 5126,
      "count": 561,
      "max": [
        1,
        1,
        1
      ],
      "min": [
        -1,
        -1,
        -1
      ],
      "type": "VEC3"
    },
    {
      "bufferView": 2,
      "componentType": 5126,
      "count": 561,
      "max": [
        1.015625,
        1
      ],
      "min": [
        -0.015625,
        0
      ],
      "type": "VEC2"
    },
    {
      "bufferView": 3,
      "componentType": 5123,
      "count": 2880,
      "max": [
        560
      ],
      "min": [
        0
      ],
      "type": "SCALAR"
    },
    {
      "bufferView": 4,
      "componentType": 5126,
      "count": 18,
      "max": [
        1,
        1,
        0
      ],
      "min": [
        -1,
        0,
        0
      ],
      "type": "VEC3"
    },
    {
      "bufferView": 5,
      "componentType": 5126,
      "count": 18,
      "max": [
        0,
        0,
        1
      ],
      "min": [
        0,
        0,
        1
      ],
      "type": "VEC3"
    },
    {
      "bufferView": 6,
      "componentType": 5126,
      "count": 18,
      "max": [
        1,
        1
      ],
      "min": [
        0,
        0.5
      ],
      "type": "VEC2"
    },
    {
      "bufferView": 7,
      "componentType": 5123,
      "count": 48,
      "max": [
        17
      ],
      "min": [
        0
      ],
      "type": "SCALAR"
    },
    {
      "bufferView": 8,
      "componentType": 5126,
      "count": 561,
      "max": [
        1,
        1,
        1
      ],
      "min": [
        -1,
        -1,
        -1
      ],
      "type": "VEC3"
    },
    {
      "bufferView": 9,
      "componentType": 5126,
      "count": 561,
      "max": [
        1,
        1,
        1
      ],
      "min": [
        -1,
        -1,
        -1
      ],
      "type": "VEC3"
    },
    {
      "bufferView": 10,
      "componentType": 5126,
      "count": 561,
      "max": [
        1.015625,
        1
      ],
      "min": [
        -0.015625,
        0
      ],
      "type": "VEC2"
    },
    {
      "bufferView": 11,
      "componentType": 5123,
      "count": 2880,
      "max": [
        560
      ],
      "min": [
        0
      ],
      "type": "SCALAR"
    },
    {
      "bufferView": 12,
      "componentType": 5126,
      "count": 52,
      "max": [
        1,
        0.25,
        1
      ],
      "min": [
        -1,
        -0.25,
        -1
      ],
      "type": "VEC3"
    },
    {
      "bufferView": 13,
      "componentType": 5126,
      "count": 52,
      "max": [
        0.7071067690849304,
        1,
        0.7071067690849304
      ],
      "min": [
        -0.7071067690849304,
        -1,
        -0.7071067690849304
      ],
      "type": "VEC3"
    },
    {
      "bufferView": 14,
      "componentType": 5126,
      "count": 52,
      "max": [
        1,
        1
      ],
      "min": [
        0,
        0
      ],
      "type": "VEC2"
    },
    {
      "bufferView": 15,
      "componentType": 5123,
      "count": 96,
      "max": [
        51
      ],
      "min": [
        0
      ],
      "type": "SCALAR"
    },
    {
      "bufferView": 16,
      "componentType": 5126,
      "count": 561,
      "max": [
        1,
        1,
        1
      ],
      "min": [
        -1,
        -1,
        -1
      ],
      "type": "VEC3"
    },
    {
      "bufferView": 17,
      "componentType": 5126,
      "count": 561,
      "max": [
        1,
        1,
        1
      ],
      "min": [
        -1,
        -1,
        -1
      ],
      "type": "VEC3"
    },
    {
      "bufferView": 18,
      "componentType": 5126,
      "count": 561,
      "max": [
        1.015625,
        1
      ],
      "min": [
        -0.015625,
        0
      ],
      "type": "VEC2"
    },
    {
      "bufferView": 19,
      "componentType": 5123,
      "count": 2880,
      "max": [
        560
      ],
      "min": [
        0
      ],
      "type": "SCALAR"
    },
    {
      "bufferView": 20,
      "componentType": 5126,
      "count": 10,
      "max": [
        1,
        1,
        0
      ],
      "min": [
        0,
        0,
        0
      ],
      "type": "VEC3"
    },
    {
      "bufferView": 21,
      "componentType": 5126,
      "count": 10,
      "max": [
        0,
        0,
        1
      ],
      "min": [
        0,
        0,
        1
      ],
      "type": "VEC3"
    },
    {
      "bufferView": 22,
      "componentType": 5126,
      "count": 10,
      "max": [
        1,
        1
      ],
      "min": [
        0.5,
        0.5
      ],
      "type": "VEC2"
    },
    {
      "bufferView": 23,
      "componentType": 5123,
      "count": 24,
      "max": [
        9
      ],
      "min": [
        0
      ],
      "type": "SCALAR"
    },
    {
      "bufferView": 24,
      "componentType": 5126,
      "count": 52,
      "max": [
        1.1799999475479126,
        0.5,
        1.1799999475479126
      ],
      "min": [
        -1.1799999475479126,
        -0.5,
        -1.1799999475479126
      ],
      "type": "VEC3"
    },
    {
      "bufferView": 25,
      "componentType": 5126,
      "count": 52,
      "max": [
        0.8269265294075012,
        1,
        0.8269265294075012
      ],
      "min": [
        -0.8269265294075012,
        -1,
        -0.8269265294075012
      ],
      "type": "VEC3"
    },
    {
      "bufferView": 26,
      "componentType": 5126,
      "count": 52,
      "max": [
        1,
        1
      ],
      "min": [
        0,
        0
      ],
      "type": "VEC2"
    },
    {
      "bufferView": 27,
      "componentType": 5123,
      "count": 96,
      "max": [
        51
      ],
      "min": [
        0
      ],
      "type": "SCALAR"
    }
  ],
  "materials": [
    {
      "pbrMetallicRoughness": {
        "baseColorFactor": [
          0,
          0,
          0,
          1
        ],
        "metallicFactor": 0,
        "roughnessFactor": 1
      }
    },
    {
      "pbrMetallicRoughness": {
        "baseColorFactor": [
          0.4549019607843137,
          0.22745098039215686,
          0.22745098039215686,
          1
        ],
        "metallicFactor": 0,
        "roughnessFactor": 1
      },
      "emissiveFactor": [
        0.11764705882352941,
        0.058823529411764705,
        0.058823529411764705
      ]
    },
    {
      "pbrMetallicRoughness": {
        "baseColorFactor": [
          1,
          0.5019607843137255,
          0.5019607843137255,
          1
        ],
        "metallicFactor": 0,
        "roughnessFactor": 1
      },
      "emissiveFactor": [
        1,
        0.5019607843137255,
        0.5019607843137255
      ]
    },
    {
      "pbrMetallicRoughness": {
        "baseColorFactor": [
          1,
          0.5019607843137255,
          0.5019607843137255,
          1
        ],
        "metallicFactor": 0,
        "roughnessFactor": 1
      },
      "emissiveFactor": [
        1,
        0.5019607843137255,
        0.5019607843137255
      ]
    },
    {
      "pbrMetallicRoughness": {
        "baseColorFactor": [
          1,
          0.6901960784313725,
          0.6901960784313725,
          1
        ],
        "metallicFactor": 0,
        "roughnessFactor": 1
      },
      "emissiveFactor": [
        1,
        0.43529411764705883,
        0.43529411764705883
      ]
    },
    {
      "pbrMetallicRoughness": {
        "baseColorFactor": [
          1,
          0.4666666666666667,
          0.4666666666666667,
          1
        ],
        "metallicFactor": 0,
        "roughnessFactor": 1
      },
      "emissiveFactor": [
        1,
        0.34901960784313724,
        0.34901960784313724
      ],
      "doubleSided": true
    },
    {
      "pbrMetallicRoughness": {
        "baseColorFactor": [
          1,
          0.5019607843137255,
          0.5019607843137255,
          1
        ],
        "metallicFactor": 0,
        "roughnessFactor": 1
      },
      "emissiveFactor": [
        1,
        0.5019607843137255,
        0.5019607843137255
      ]
    }
  ],
  "meshes": [
    {
      "primitives": [
        {
          "mode": 4,
          "attributes": {
            "POSITION": 0,
            "NORMAL": 1,
            "TEXCOORD_0": 2
          },
          "indices": 3,
          "material": 0
        }
      ]
    },
    {
      "primitives": [
        {
          "mode": 4,
          "attributes": {
            "POSITION": 4,
            "NORMAL": 5,
            "TEXCOORD_0": 6
          },
          "indices": 7,
          "material": 1
        }
      ]
    },
    {
      "primitives": [
        {
          "mode": 4,
          "attributes": {
            "POSITION": 8,
            "NORMAL": 9,
            "TEXCOORD_0": 10
          },
          "indices": 11,
          "material": 2
        }
      ]
    },
    {
      "primitives": [
        {
          "mode": 4,
          "attributes": {
            "POSITION": 12,
            "NORMAL": 13,
            "TEXCOORD_0": 14
          },
          "indices": 15,
          "material": 3
        }
      ]
    },
    {
      "primitives": [
        {
          "mode": 4,
          "attributes": {
            "POSITION": 16,
            "NORMAL": 17,
            "TEXCOORD_0": 18
          },
          "indices": 19,
          "material": 4
        }
      ]
    },
    {
      "primitives": [
        {
          "mode": 4,
          "attributes": {
            "POSITION": 20,
            "NORMAL": 21,
            "TEXCOORD_0": 22
          },
          "indices": 23,
          "material": 5
        }
      ]
    },
    {
      "primitives": [
        {
          "mode": 4,
          "attributes": {
            "POSITION": 24,
            "NORMAL": 25,
            "TEXCOORD_0": 26
          },
          "indices": 27,
          "material": 6
        }
      ]
    }
  ]
}